<svg width="100" height="100">

    <!-- back -->
    <polygon points=" 0,0 0,100 50,50" fill="#00b45a" />
    <polygon points="0,0 100,0 50,50" fill="#29ff9b"/>
    <polygon points="0,100 100,100 50,50" fill="#00793c"/>
    <polygon points="100,100 100,0 50,50" fill="#00c78b"/>
    <rect width="80" height="80" x="10" y="10" fill="black"/>
    <!-- back -->

    <path d="M25,15 L35,15 L35,85 L25,85Z M15,15 L45,15 L45,25 L15,25Z  M15,75 L45,75 L45,85 L15,85Z " fill="white" />
    <path d="M50,15 L50,75 L60,85 L60,15Z M75,75 L 75,85 L60,85 L60,75 Z M75,15 L85,15 L85,75 L75,85" fill="white"/>
</svg>